HIERARCHY
ROOT pelvis
{
	OFFSET 0.000000 0.000000 0.916916
	CHANNELS 6 Xposition Yposition Zposition Xrotation Yrotation Zrotation
	JOINT spine
	{
		OFFSET 0.000000 0.000000 0.000000
		CHANNELS 6 Xposition Yposition Zposition Xrotation Yrotation Zrotation
		JOINT spine.001
		{
			OFFSET 0.000000 -0.014812 0.282625
			CHANNELS 3 Xrotation Yrotation Zrotation
			JOINT neck
			{
				OFFSET 0.000000 0.034491 0.280904
				CHANNELS 6 Xposition Yposition Zposition Xrotation Yrotation Zrotation
				JOINT face
				{
					OFFSET 0.000000 0.003858 0.221020
					CHANNELS 6 Xposition Yposition Zposition Xrotation Yrotation Zrotation
					End Site
					{
						OFFSET 0.000000 -0.027705 -0.009025
					}
				}
			}
			JOINT shoulder.L
			{
				OFFSET 0.000000 0.034491 0.280904
				CHANNELS 6 Xposition Yposition Zposition Yrotation Xrotation Zrotation
				JOINT upper_arm.L
				{
					OFFSET 0.184408 0.000000 0.000000
					CHANNELS 6 Xposition Yposition Zposition Xrotation Yrotation Zrotation
					JOINT forearm.L
					{
						OFFSET 0.319597 0.000133 0.001102
						CHANNELS 6 Xposition Yposition Zposition Xrotation Yrotation Zrotation
						End Site
						{
							OFFSET 0.275885 -0.004694 -0.001518
						}
					}
				}
			}
			JOINT shoulder.R
			{
				OFFSET 0.000000 0.034491 0.280904
				CHANNELS 6 Xposition Yposition Zposition Yrotation Xrotation Zrotation
				JOINT upper_arm.R
				{
					OFFSET -0.184408 0.000000 0.000000
					CHANNELS 6 Xposition Yposition Zposition Xrotation Yrotation Zrotation
					JOINT forearm.R
					{
						OFFSET -0.316425 0.000133 0.001102
						CHANNELS 6 Xposition Yposition Zposition Xrotation Yrotation Zrotation
						End Site
						{
							OFFSET -0.272744 -0.004639 -0.001518
						}
					}
				}
			}
		}
	}
	JOINT pelvis.L
	{
		OFFSET 0.000000 0.000000 0.000000
		CHANNELS 6 Xposition Yposition Zposition Yrotation Xrotation Zrotation
		End Site
		{
			OFFSET 0.105694 0.000000 0.000000
		}
	}
	JOINT pelvis.R
	{
		OFFSET 0.000000 0.000000 0.000000
		CHANNELS 6 Xposition Yposition Zposition Yrotation Xrotation Zrotation
		End Site
		{
			OFFSET -0.105694 0.000000 0.000000
		}
	}
	JOINT thigh.L
	{
		OFFSET 0.105694 0.000000 0.000000
		CHANNELS 6 Xposition Yposition Zposition Xrotation Yrotation Zrotation
		JOINT shin.L
		{
			OFFSET 0.021460 0.000000 -0.409486
			CHANNELS 6 Xposition Yposition Zposition Xrotation Yrotation Zrotation
			JOINT foot.L
			{
				OFFSET 0.021682 0.000000 -0.413708
				CHANNELS 3 Xrotation Yrotation Zrotation
				End Site
				{
					OFFSET 0.019024 -0.193974 -0.081453
				}
			}
			JOINT heel.02.L
			{
				OFFSET 0.021682 0.000000 -0.413708
				CHANNELS 3 Xrotation Yrotation Zrotation
				End Site
				{
					OFFSET 0.104806 0.039635 -0.087226
				}
			}
		}
	}
	JOINT thigh.R
	{
		OFFSET -0.105694 0.000000 0.000000
		CHANNELS 6 Xposition Yposition Zposition Xrotation Yrotation Zrotation
		JOINT shin.R
		{
			OFFSET -0.021718 0.000000 -0.414405
			CHANNELS 6 Xposition Yposition Zposition Xrotation Yrotation Zrotation
			JOINT foot.R
			{
				OFFSET -0.022372 0.000000 -0.426879
				CHANNELS 3 Xrotation Yrotation Zrotation
				End Site
				{
					OFFSET -0.019484 -0.198656 -0.083419
				}
			}
			JOINT heel.02.R
			{
				OFFSET -0.022372 0.000000 -0.426879
				CHANNELS 3 Xrotation Yrotation Zrotation
				End Site
				{
					OFFSET -0.103343 0.039635 -0.069163
				}
			}
		}
	}
}
MOTION
Frames: 6
Frame Time: 0.041667
0.098273 0.017949 0.891204 -0.000000 0.000000 -41.512350 -0.000000 0.000000 0.000000 -9.991590 0.167569 0.023537 9.999673 -0.072592 -0.591235 0.000000 0.034491 0.280903 12.257374 2.780917 3.413064 -0.000000 0.003858 0.221019 0.614623 -0.000002 0.000001 0.000000 0.034491 0.280903 1.698447 0.003091 -0.208508 0.184409 -0.000000 0.000000 -19.383691 74.570735 25.191522 0.319597 0.000133 0.001102 6.226674 19.227995 -34.680135 0.000000 0.034491 0.280903 1.751709 0.003289 -0.215062 -0.184409 -0.000000 -0.000000 -16.013519 -77.465260 -19.815550 -0.316425 0.000133 0.001102 3.927801 -17.930444 23.355099 0.000000 -0.000000 0.000000 -1.136103 0.000000 0.000024 -0.000000 -0.000000 0.000000 -1.136135 -0.000000 0.000000 0.105673 -0.000000 0.002096 -0.269204 2.646074 -0.007897 0.021460 0.000000 -0.409486 3.580897 -1.748197 0.242182 -13.023176 -2.772725 2.530279 -9.037436 45.760833 31.792857 -0.105673 -0.000000 -0.002096 -1.794128 -6.566433 -0.008921 -0.021718 -0.000000 -0.414405 4.823387 4.651031 -0.447967 -8.885857 4.532490 -6.997581 -13.700236 -44.973025 -37.931534 
0.098562 0.018322 0.891308 -0.000000 0.000000 -41.639128 -0.000000 0.000000 -0.000000 -9.918314 0.097959 0.013697 9.999892 0.003223 0.026271 0.000000 0.034491 0.280904 12.015352 2.821876 3.071753 0.000000 0.003858 0.221020 0.508328 -0.000000 -0.000008 -0.000000 0.034491 0.280904 1.707816 0.003124 -0.209725 0.184409 -0.000000 -0.000000 -17.391175 74.518313 22.647381 0.319597 0.000133 0.001102 6.229354 19.605368 -33.999920 -0.000000 0.034491 0.280904 1.761115 0.003324 -0.216228 -0.184408 -0.000000 0.000000 -15.160679 -77.473149 -18.761913 -0.316425 0.000133 0.001102 3.842136 -17.773064 23.042669 -0.000000 -0.000000 0.000000 -0.825546 -0.000001 -0.000101 -0.000000 -0.000000 0.000000 -0.825515 -0.000000 0.000005 0.105683 -0.000000 0.001523 0.015359 2.562937 0.000460 0.021460 0.000000 -0.409486 2.825119 -1.408777 0.182710 -12.412261 -3.262358 3.559066 -8.949873 45.355458 31.071593 -0.105683 -0.000000 -0.001523 -1.976641 -6.452177 -0.007841 -0.021718 0.000000 -0.414405 5.243984 4.579431 -0.483826 -8.996297 4.558868 -7.009183 -14.706142 -45.629567 -38.036033 
0.099122 0.018743 0.891621 -0.000000 0.000000 -41.720766 0.000000 0.000000 0.000000 -9.886325 0.099319 0.013859 9.999779 0.046584 0.379378 -0.000000 0.034491 0.280903 11.943392 2.789164 2.864336 -0.000000 0.003858 0.221019 0.390782 0.000003 -0.000014 0.000000 0.034490 0.280904 1.707032 0.003123 -0.209681 0.184409 0.000000 -0.000000 -16.114276 74.442396 21.025320 0.319597 0.000133 0.001102 6.210561 19.786170 -33.574529 0.000000 0.034490 0.280904 1.760293 0.003322 -0.216227 -0.184409 -0.000000 0.000000 -14.646036 -77.475546 -18.126409 -0.316425 0.000133 0.001102 3.786444 -17.652274 22.862655 0.000000 0.000000 0.000000 -0.579284 -0.000000 -0.000073 0.000000 0.000000 0.000000 -0.579285 -0.000000 -0.000002 0.105689 -0.000000 0.001069 0.181804 2.521259 0.005535 0.021460 -0.000000 -0.409486 2.281802 -1.193243 0.143283 -12.012293 -3.552772 4.190771 -8.938571 45.109660 30.587418 -0.105689 0.000000 -0.001069 -2.137497 -6.328945 -0.006169 -0.021718 -0.000000 -0.414405 5.592949 4.485398 -0.511500 -9.126287 4.580671 -7.005126 -15.573805 -46.190824 -38.153085 
0.100082 0.019156 0.892097 -0.000000 0.000000 -41.720691 0.000000 0.000000 0.000000 -9.887209 0.176212 0.024590 9.999777 0.054628 0.444942 -0.000000 0.034491 0.280904 12.068643 2.737754 2.636483 0.000000 0.003858 0.221020 0.251376 -0.000000 0.000003 -0.000000 0.034491 0.280903 1.693056 0.003072 -0.207851 0.184408 -0.000000 -0.000000 -15.491330 74.416830 20.227055 0.319597 0.000133 0.001102 6.146580 19.725206 -33.337566 -0.000000 0.034491 0.280904 1.746280 0.003269 -0.214405 -0.184408 0.000000 0.000000 -14.642570 -77.475812 -18.122116 -0.316425 0.000133 0.001102 3.769242 -17.567955 22.874208 0.000000 -0.000000 0.000000 -0.392293 -0.000000 0.000009 0.000000 -0.000000 0.000000 -0.392261 -0.000000 0.000002 0.105692 0.000000 0.000724 0.208717 2.548519 0.006303 0.021460 0.000000 -0.409486 1.978559 -1.138366 0.123300 -11.791151 -3.623070 4.380664 -8.957611 45.013105 30.367615 -0.105691 0.000000 -0.000724 -2.264693 -6.194622 -0.003863 -0.021718 -0.000000 -0.414405 5.840933 4.365678 -0.528145 -9.248568 4.609885 -7.017788 -16.241701 -46.624152 -38.283555 
0.101386 0.019471 0.892483 -0.000000 0.000000 -41.630802 -0.000000 0.000000 0.000000 -9.870579 0.286869 0.039987 9.999813 0.052133 0.424621 -0.000000 0.034491 0.280904 12.297198 2.797299 2.142880 -0.000000 0.003858 0.221019 0.078062 0.000003 -0.000005 -0.000000 0.034491 0.280904 1.670430 0.002988 -0.204981 0.184409 -0.000000 0.000000 -14.889269 74.517821 19.410839 0.319597 0.000133 0.001102 6.022844 19.516091 -33.035009 -0.000000 0.034491 0.280903 1.723654 0.003183 -0.211603 -0.184409 -0.000000 -0.000000 -15.207478 -77.466558 -18.821867 -0.316425 0.000133 0.001102 3.788850 -17.520716 23.068435 -0.000000 -0.000000 0.000000 -0.227859 -0.000000 -0.000106 -0.000000 -0.000000 0.000000 -0.227827 -0.000000 0.000000 0.105693 -0.000000 0.000420 0.150011 2.637106 0.004413 0.021460 0.000000 -0.409486 1.808597 -1.187469 0.113479 -11.558990 -3.590506 4.388288 -8.920748 44.921932 30.234095 -0.105693 -0.000000 -0.000420 -2.366396 -6.059042 -0.001220 -0.021718 -0.000000 -0.414405 6.007115 4.240809 -0.536686 -9.316171 4.665695 -7.099906 -16.741115 -46.954866 -38.436213 
0.102866 0.019672 0.892617 -0.000000 0.000000 -41.493119 0.000000 -0.000000 0.000000 -9.799009 0.403693 0.056018 9.999714 0.064795 0.527867 -0.000000 0.034491 0.280904 12.526215 2.990688 1.390518 -0.000000 0.003858 0.221019 -0.117589 -0.000001 0.000005 -0.000000 0.034491 0.280904 1.640036 0.002881 -0.201311 0.184409 0.000000 -0.000000 -13.905469 74.713752 18.071595 0.319597 0.000133 0.001102 5.872182 19.297643 -32.592099 -0.000000 0.034491 0.280904 1.693261 0.003072 -0.207869 -0.184409 -0.000000 -0.000000 -16.357987 -77.435945 -20.250126 -0.316425 0.000133 0.001102 3.838716 -17.500090 23.418866 0.000000 0.000000 0.000000 -0.083621 -0.000000 -0.000044 0.000000 0.000000 0.000000 -0.083621 -0.000000 0.000002 0.105694 0.000000 0.000154 0.055446 2.748181 0.001575 0.021460 0.000000 -0.409486 1.698407 -1.260332 0.107634 -11.237798 -3.564435 4.433498 -8.821220 44.780978 30.086065 -0.105694 -0.000000 -0.000154 -2.460478 -5.937828 0.001341 -0.021718 -0.000000 -0.414405 6.124504 4.140825 -0.541866 -9.318612 4.744652 -7.248620 -17.109733 -47.206480 -38.601787 
